<svg width="589" height="124" viewBox="0 0 589 124" fill="none" xmlns="http://www.w3.org/2000/svg">
<path d="M110.97 124V0H81.2127V47.5333H29.7573V0H0V124H29.7573V75.8467H81.2127V124H110.97Z" fill="black"/>
<path d="M441.23 124H476.567V123.587L419.945 63.4467L475.121 0.413328V0H441.024L397.421 53.5267H395.768V0H366.01V124H395.768V77.5H397.421L441.23 124Z" fill="black"/>
<path d="M554.158 120.403H588.697V0H554.158V70.6162C554.158 84.587 546.031 92.7155 532.063 92.7155C517.587 92.7155 512 83.063 512 70.6162V0H477.207V80.5228C477.207 106.686 488.381 123.959 514.539 123.959C533.841 123.959 548.063 114.307 553.65 86.8732H554.158V120.403Z" fill="black"/>
<path d="M296.808 96.4129C283.796 96.4129 279.292 90.6531 279.292 83.3909C279.292 76.8799 285.298 72.3722 295.307 72.3722H320.83V75.8782C320.83 87.8985 311.321 96.4129 296.808 96.4129ZM320.83 121.455H354.861V47.8308C354.861 17.5296 339.848 0 303.815 0C267.031 0 252.518 17.78 249.515 42.5719L281.544 47.0795C283.796 33.3063 291.053 28.2978 302.313 28.2978C315.325 28.2978 320.83 35.3096 320.83 48.0812V53.0897H290.052C258.773 53.0897 246.012 67.8646 246.012 89.401C246.012 112.69 261.526 123.959 282.045 123.959C302.063 123.959 315.075 112.69 320.33 92.4061H320.83V121.455Z" fill="black"/>
<path d="M179.975 123.959C217.577 123.959 240.584 100.454 240.584 61.856C240.584 22.763 216.835 0 179.975 0C142.867 0 119.118 22.763 119.118 61.856C119.118 100.454 142.125 123.959 179.975 123.959ZM179.975 30.6806C197.044 30.6806 206.94 42.8043 206.94 61.6086C206.94 80.6602 197.292 93.0314 179.727 93.0314C162.411 93.0314 153.01 80.6602 153.01 61.6086C153.01 42.8043 162.658 30.6806 179.975 30.6806Z" fill="black"/>
</svg>
